<svg xmlns="http://www.w3.org/2000/svg" viewBox="0 0 120 120" role="img" aria-labelledby="title desc">
  <title id="title">WristAtlas compact mark</title>
  <desc id="desc">A simplified globe and compass inside a three-ring watch dial with five-minute indices.</desc>
  <g fill="none" stroke="#2d6f98" stroke-linecap="round" stroke-linejoin="round">
    <circle cx="60" cy="60" r="54" stroke-width="2.6"/>
    <circle cx="60" cy="60" r="50" stroke-width="1.4"/>
    <circle cx="60" cy="60" r="44" stroke-width="1.4"/>
    <g stroke-width="1.8" stroke-linecap="square">
      <path d="M60 11.5v2.5"/>
      <path d="M60 11.5v2.5" transform="rotate(30 60 60)"/>
      <path d="M60 11.5v2.5" transform="rotate(60 60 60)"/>
      <path d="M60 11.5v2.5" transform="rotate(90 60 60)"/>
      <path d="M60 11.5v2.5" transform="rotate(120 60 60)"/>
      <path d="M60 11.5v2.5" transform="rotate(150 60 60)"/>
      <path d="M60 11.5v2.5" transform="rotate(180 60 60)"/>
      <path d="M60 11.5v2.5" transform="rotate(210 60 60)"/>
      <path d="M60 11.5v2.5" transform="rotate(240 60 60)"/>
      <path d="M60 11.5v2.5" transform="rotate(270 60 60)"/>
      <path d="M60 11.5v2.5" transform="rotate(300 60 60)"/>
      <path d="M60 11.5v2.5" transform="rotate(330 60 60)"/>
    </g>
    <g stroke-width="2.2">
      <circle cx="60" cy="60" r="31"/>
      <path d="M60 29C49 38 46 49 46 60s3 22 14 31"/>
      <path d="M60 29c11 9 14 20 14 31s-3 22-14 31"/>
      <path d="M60 29v62"/>
      <path d="M29 60h62"/>
    </g>
  </g>
  <g transform="rotate(43 60 60)">
    <path d="M60 31 67 60 60 89 53 60Z" fill="#2d6f98"/>
    <path d="M60 31 60 60 53 60Z" fill="#102c3f"/>
    <path d="M60 89 60 60 67 60Z" fill="#102c3f"/>
  </g>
  <circle cx="60" cy="60" r="5.5" fill="#f3f0e8" stroke="#102c3f" stroke-width="2.8"/>
</svg>
